# xmcd CD database file
#
# Track frame offsets:
#	150
#	18418
#	37431
#	58182
#	78711
#	95825
#	111211
#	131585
#	149685
#	171382
#
# Disc length: 2327 seconds
#
# Revision: 0
# Processed by: cddbd v1.5.2PL0 Copyright (c) Steve Scherf et al.
# Submitted via: CDex 1.51
#
DISCID=9e09150a
DTITLE=Era - Classics II
DYEAR=2010
DGENRE=New Age
TTITLE0=Ave Peternumdeo
TTITLE1=Madeus
TTITLE2=Abbey Road Blues
TTITLE3=A Brand New Day
TTITLE4=Voxifera (Rock Edit)
TTITLE5=Prelude
TTITLE6=I'm No Angel
TTITLE7=Journey
TTITLE8=Thunder Flash
TTITLE9=Outro Madeus
EXTD=YEAR: 2010
EXTT0=
EXTT1=
EXTT2=
EXTT3=
EXTT4=
EXTT5=
EXTT6=
EXTT7=
EXTT8=
EXTT9=
PLAYORDER=
